<?xml version="1.0" encoding="UTF-8"?>
<svg id="Calque_1" data-name="Calque 1" xmlns="http://www.w3.org/2000/svg" viewBox="0 0 1348 392.5">
  <defs>
    <style>
      .cls-1 {
        fill: #fa1919;
      }
    </style>
  </defs>
  <path class="cls-1" d="m186.6,9.49l81.6,378h-87.6l-12.6-67.2h-74.4l-13.2,67.2H0L81.6,9.49h105Zm-80.4,244.2h49.8l-22.8-124.8h-2.4l-24.6,124.8Z"/>
  <path class="cls-1" d="m373.2,265.69c0,33.6,4.2,55.2,30,55.2s30-21.6,30-55.2v-40.8h85.8v17.4c0,88.2-28.2,150-114,150s-122.4-59.4-122.4-168v-51.6c0-108.6,34.2-168,122.4-168s114,61.8,114,150v17.4h-85.8v-40.8c0-33.6-4.2-55.2-30-55.2s-30,21.6-30,55.2v134.4Z"/>
  <path class="cls-1" d="m702.6,9.49h87l-88.2,245.4v132.6h-85.8v-132.6L527.4,9.49h91.2l43.8,139.2,40.2-139.2Z"/>
  <path class="cls-1" d="m967.2,387.49c-4.8-14.4-6-36.6-8.4-82.2-1.8-36-10.8-54.6-38.4-54.6h-11.4v136.8h-87V9.49h108.6c84.6,0,122.4,44.4,122.4,111.6,0,59.4-27,88.8-65.4,95.4,39.6,9,52.8,37.2,55.8,84.6,3,49.8,2.4,69,10.8,86.4h-87Zm-49.8-206.4c35.4,0,49.2-11.4,49.2-49.8,0-34.2-13.8-51-49.2-51h-8.4v100.8h8.4Z"/>
  <path class="cls-1" d="m1266,9.49l81.6,378h-87.6l-12.6-67.2h-74.4l-13.2,67.2h-80.4L1160.99,9.49h105Zm-80.4,244.2h49.8l-22.8-124.8h-2.4l-24.6,124.8Z"/>
</svg>